HIERARCHY
ROOT Hips
{
  OFFSET -395.709 74.6333 870.142
  CHANNELS 6 Xposition Yposition Zposition Zrotation Xrotation Yrotation
  JOINT Spine
  {
    OFFSET 0 8 2.12548e-05
    CHANNELS 6 Xposition Yposition Zposition Zrotation Xrotation Yrotation
    JOINT Spine1
    {
      OFFSET 4.88459e-05 7.99985 0.04888
      CHANNELS 6 Xposition Yposition Zposition Zrotation Xrotation Yrotation
      JOINT Spine2
      {
        OFFSET -3.60652e-05 8 1.42106e-05
        CHANNELS 6 Xposition Yposition Zposition Zrotation Xrotation Yrotation
        JOINT Spine3
        {
          OFFSET 0 8 0
          CHANNELS 6 Xposition Yposition Zposition Zrotation Xrotation Yrotation
          JOINT Neck
          {
            OFFSET 0.000538132 17 0.000683383
            CHANNELS 6 Xposition Yposition Zposition Zrotation Xrotation Yrotation
            JOINT Head
            {
              OFFSET -1.87674e-05 10.8 -3.76918e-05
              CHANNELS 6 Xposition Yposition Zposition Zrotation Xrotation Yrotation
              End Site
              {
                OFFSET 0 20.25 0
              }
            }
          }
          JOINT LeftShoulder
          {
            OFFSET 5.00053 16.9998 0.00041573
            CHANNELS 6 Xposition Yposition Zposition Zrotation Xrotation Yrotation
            JOINT LeftShoulder2
            {
              OFFSET 6.45 0 0
              CHANNELS 6 Xposition Yposition Zposition Zrotation Xrotation Yrotation
              JOINT LeftArm
              {
                OFFSET 6.45 -0.000190308 -8.70132e-05
                CHANNELS 6 Xposition Yposition Zposition Zrotation Xrotation Yrotation
                JOINT LeftForeArm
                {
                  OFFSET -4.47976e-05 -32.4 -2.05835
                  CHANNELS 6 Xposition Yposition Zposition Zrotation Xrotation Yrotation
                  JOINT LeftHand
                  {
                    OFFSET 6.426e-05 -25.6525 2.00004
                    CHANNELS 6 Xposition Yposition Zposition Zrotation Xrotation Yrotation
                    JOINT LeftHandThumb1
                    {
                      OFFSET -0.499983 -1.49999 2.64991
                      CHANNELS 6 Xposition Yposition Zposition Zrotation Xrotation Yrotation
                      JOINT LeftHandThumb2
                      {
                        OFFSET -4.71469e-05 -3.79996 3.69997
                        CHANNELS 6 Xposition Yposition Zposition Zrotation Xrotation Yrotation
                        JOINT LeftHandThumb3
                        {
                          OFFSET -8.7552e-05 -2.99995 2.70002
                          CHANNELS 6 Xposition Yposition Zposition Zrotation Xrotation Yrotation
                          End Site
                          {
                            OFFSET 0 -2.29999 1.79997
                          }
                        }
                      }
                    }
                    JOINT LeftHandIndex
                    {
                      OFFSET -3.02086e-05 -1.90005 1.60002
                      CHANNELS 6 Xposition Yposition Zposition Zrotation Xrotation Yrotation
                      JOINT LeftHandIndex1
                      {
                        OFFSET 0 -8.30001 1.89995
                        CHANNELS 6 Xposition Yposition Zposition Zrotation Xrotation Yrotation
                        JOINT LeftHandIndex2
                        {
                          OFFSET 0 -4.5 -4.89226e-05
                          CHANNELS 6 Xposition Yposition Zposition Zrotation Xrotation Yrotation
                          JOINT LeftHandIndex3
                          {
                            OFFSET 0 -3.39997 -1.1535e-05
                            CHANNELS 6 Xposition Yposition Zposition Zrotation Xrotation Yrotation
                            End Site
                            {
                              OFFSET -5.44737e-05 -2.60007 5.97125e-05
                            }
                          }
                        }
                      }
                    }
                    JOINT LeftHandMiddle
                    {
                      OFFSET -0.250009 -2.19999 0.400057
                      CHANNELS 6 Xposition Yposition Zposition Zrotation Xrotation Yrotation
                      JOINT LeftHandMiddle1
                      {
                        OFFSET -3.20315e-05 -8.30006 1.01771
                        CHANNELS 6 Xposition Yposition Zposition Zrotation Xrotation Yrotation
                        JOINT LeftHandMiddle2
                        {
                          OFFSET -1.78791e-05 -4.64996 2.59546e-05
                          CHANNELS 6 Xposition Yposition Zposition Zrotation Xrotation Yrotation
                          JOINT LeftHandMiddle3
                          {
                            OFFSET 2.08122e-05 -3.30003 1.1614e-05
                            CHANNELS 6 Xposition Yposition Zposition Zrotation Xrotation Yrotation
                            End Site
                            {
                              OFFSET -2.21635e-05 -2.69996 0
                            }
                          }
                        }
                      }
                    }
                    JOINT LeftHandRing
                    {
                      OFFSET -0.500036 -2.05024 -0.800034
                      CHANNELS 6 Xposition Yposition Zposition Zrotation Xrotation Yrotation
                      JOINT LeftHandRing1
                      {
                        OFFSET 3.62639e-05 -7.80478 -0.200013
                        CHANNELS 6 Xposition Yposition Zposition Zrotation Xrotation Yrotation
                        JOINT LeftHandRing2
                        {
                          OFFSET -0.0360416 -3.79997 9.7584e-05
                          CHANNELS 6 Xposition Yposition Zposition Zrotation Xrotation Yrotation
                          JOINT LeftHandRing3
                          {
                            OFFSET 0.000277375 -3.39994 4.16933e-05
                            CHANNELS 6 Xposition Yposition Zposition Zrotation Xrotation Yrotation
                            End Site
                            {
                              OFFSET 3.83976e-05 -2.6 -3.30097e-05
                            }
                          }
                        }
                      }
                    }
                    JOINT LeftHandPinky
                    {
                      OFFSET -0.749975 -1.74998 -1.85
                      CHANNELS 6 Xposition Yposition Zposition Zrotation Xrotation Yrotation
                      JOINT LeftHandPinky1
                      {
                        OFFSET 4.31766e-05 -7.15007 -1.00004
                        CHANNELS 6 Xposition Yposition Zposition Zrotation Xrotation Yrotation
                        JOINT LeftHandPinky2
                        {
                          OFFSET 0.0514124 -2.99995 -6.6856e-05
                          CHANNELS 6 Xposition Yposition Zposition Zrotation Xrotation Yrotation
                          JOINT LeftHandPinky3
                          {
                            OFFSET -3.45768e-05 -2.35007 5.1305e-05
                            CHANNELS 6 Xposition Yposition Zposition Zrotation Xrotation Yrotation
                            End Site
                            {
                              OFFSET -2.31166e-05 -2.10003 0
                            }
                          }
                        }
                      }
                    }
                  }
                }
              }
            }
          }
          JOINT RightShoulder
          {
            OFFSET -4.99946 17.0002 0.000953555
            CHANNELS 6 Xposition Yposition Zposition Zrotation Xrotation Yrotation
            JOINT RightShoulder2
            {
              OFFSET -6.45 0 0
              CHANNELS 6 Xposition Yposition Zposition Zrotation Xrotation Yrotation
              JOINT RightArm
              {
                OFFSET -6.45 -0.000244798 -0.00033072
                CHANNELS 6 Xposition Yposition Zposition Zrotation Xrotation Yrotation
                JOINT RightForeArm
                {
                  OFFSET 1.4958e-05 -32.4 -2.00001
                  CHANNELS 6 Xposition Yposition Zposition Zrotation Xrotation Yrotation
                  JOINT RightHand
                  {
                    OFFSET 0.0663891 -25.6499 2.00007
                    CHANNELS 6 Xposition Yposition Zposition Zrotation Xrotation Yrotation
                    JOINT RightHandThumb1
                    {
                      OFFSET 0.500009 -1.50003 2.65002
                      CHANNELS 6 Xposition Yposition Zposition Zrotation Xrotation Yrotation
                      JOINT RightHandThumb2
                      {
                        OFFSET 0.0507751 -3.79999 3.70006
                        CHANNELS 6 Xposition Yposition Zposition Zrotation Xrotation Yrotation
                        JOINT RightHandThumb3
                        {
                          OFFSET 0.0125164 -3 2.69999
                          CHANNELS 6 Xposition Yposition Zposition Zrotation Xrotation Yrotation
                          End Site
                          {
                            OFFSET -8.6186e-05 -2.29998 1.80001
                          }
                        }
                      }
                    }
                    JOINT RightHandIndex
                    {
                      OFFSET -2.00674e-05 -1.89995 1.60005
                      CHANNELS 6 Xposition Yposition Zposition Zrotation Xrotation Yrotation
                      JOINT RightHandIndex1
                      {
                        OFFSET 4.73338e-05 -8.30005 1.89999
                        CHANNELS 6 Xposition Yposition Zposition Zrotation Xrotation Yrotation
                        JOINT RightHandIndex2
                        {
                          OFFSET -3.5353e-05 -4.49998 0.02735
                          CHANNELS 6 Xposition Yposition Zposition Zrotation Xrotation Yrotation
                          JOINT RightHandIndex3
                          {
                            OFFSET -2.7149e-05 -3.40001 -5.39004e-05
                            CHANNELS 6 Xposition Yposition Zposition Zrotation Xrotation Yrotation
                            End Site
                            {
                              OFFSET -3.95308e-05 -2.59998 8.15106e-05
                            }
                          }
                        }
                      }
                    }
                    JOINT RightHandMiddle
                    {
                      OFFSET 0.250059 -2.20002 0.400016
                      CHANNELS 6 Xposition Yposition Zposition Zrotation Xrotation Yrotation
                      JOINT RightHandMiddle1
                      {
                        OFFSET 0 -8.3 1.0033
                        CHANNELS 6 Xposition Yposition Zposition Zrotation Xrotation Yrotation
                        JOINT RightHandMiddle2
                        {
                          OFFSET 4.29097e-05 -4.64995 -6.77142e-05
                          CHANNELS 6 Xposition Yposition Zposition Zrotation Xrotation Yrotation
                          JOINT RightHandMiddle3
                          {
                            OFFSET -5.4534e-05 -3.25196 4.77489e-05
                            CHANNELS 6 Xposition Yposition Zposition Zrotation Xrotation Yrotation
                            End Site
                            {
                              OFFSET -3.9086e-05 -2.69994 -4.15298e-05
                            }
                          }
                        }
                      }
                    }
                    JOINT RightHandRing
                    {
                      OFFSET 0.499924 -2.14995 -0.80001
                      CHANNELS 6 Xposition Yposition Zposition Zrotation Xrotation Yrotation
                      JOINT RightHandRing1
                      {
                        OFFSET 0 -7.74998 -0.199948
                        CHANNELS 6 Xposition Yposition Zposition Zrotation Xrotation Yrotation
                        JOINT RightHandRing2
                        {
                          OFFSET 4.18305e-05 -3.79997 0
                          CHANNELS 6 Xposition Yposition Zposition Zrotation Xrotation Yrotation
                          JOINT RightHandRing3
                          {
                            OFFSET -6.42455e-05 -3.40005 -1.37094e-05
                            CHANNELS 6 Xposition Yposition Zposition Zrotation Xrotation Yrotation
                            End Site
                            {
                              OFFSET 5.75047e-05 -2.60002 8.52077e-05
                            }
                          }
                        }
                      }
                    }
                    JOINT RightHandPinky
                    {
                      OFFSET 0.749975 -1.74993 -1.83909
                      CHANNELS 6 Xposition Yposition Zposition Zrotation Xrotation Yrotation
                      JOINT RightHandPinky1
                      {
                        OFFSET 6.3122e-05 -7.15008 -0.999996
                        CHANNELS 6 Xposition Yposition Zposition Zrotation Xrotation Yrotation
                        JOINT RightHandPinky2
                        {
                          OFFSET 4.00173e-05 -3.00004 7.54001e-05
                          CHANNELS 6 Xposition Yposition Zposition Zrotation Xrotation Yrotation
                          JOINT RightHandPinky3
                          {
                            OFFSET 0 -2.34997 -6.24902e-05
                            CHANNELS 6 Xposition Yposition Zposition Zrotation Xrotation Yrotation
                            End Site
                            {
                              OFFSET 2.73745e-05 -2.10572 0.0133882
                            }
                          }
                        }
                      }
                    }
                  }
                }
              }
            }
          }
        }
      }
    }
  }
  JOINT LeftUpLeg
  {
    OFFSET 7.99999 0 1.89838e-05
    CHANNELS 6 Xposition Yposition Zposition Zrotation Xrotation Yrotation
    JOINT LeftLeg
    {
      OFFSET -4.64685e-05 -45 -1.00006
      CHANNELS 6 Xposition Yposition Zposition Zrotation Xrotation Yrotation
      JOINT LeftFoot
      {
        OFFSET -5.58222e-05 -41 -1.99998
        CHANNELS 6 Xposition Yposition Zposition Zrotation Xrotation Yrotation
        JOINT LeftToeBase
        {
          OFFSET -2.34855e-05 -7.50001 12.4999
          CHANNELS 6 Xposition Yposition Zposition Zrotation Xrotation Yrotation
          JOINT LeftFootToe
          {
            OFFSET 0 0 4
            CHANNELS 6 Xposition Yposition Zposition Zrotation Xrotation Yrotation
            End Site
            {
              OFFSET 0 0 0
            }
          }
        }
      }
    }
  }
  JOINT RightUpLeg
  {
    OFFSET -7.99999 0 -1.89838e-05
    CHANNELS 6 Xposition Yposition Zposition Zrotation Xrotation Yrotation
    JOINT RightLeg
    {
      OFFSET 0 -45 -1.00003
      CHANNELS 6 Xposition Yposition Zposition Zrotation Xrotation Yrotation
      JOINT RightFoot
      {
        OFFSET -7.71619e-05 -41 -1.99995
        CHANNELS 6 Xposition Yposition Zposition Zrotation Xrotation Yrotation
        JOINT RightToeBase
        {
          OFFSET 3.73751e-05 -7.5 12.5
          CHANNELS 6 Xposition Yposition Zposition Zrotation Xrotation Yrotation
          JOINT RightFootToe
          {
            OFFSET 0 0 4
            CHANNELS 6 Xposition Yposition Zposition Zrotation Xrotation Yrotation
            End Site
            {
              OFFSET 0 0 0
            }
          }
        }
      }
    }
  }
}
MOTION
Frames:	3
Frame Time:	0.0111111
-395.12 77.6205 872.847 -3.20955 1.196 -175.625 -5.68434e-14 8 0 16.2365 17.8071 -15.9146 0 8 0 -0.175836 10.1175 0.312316 5.68434e-14 8 1.13687e-13 -0.0816947 5.06451 0.162877 -2.84217e-14 8 0 -0.0808006 5.04464 0.152964 2.84217e-14 17 0 -1.77507 -9.15946 -1.19805 -5.68434e-14 10.8 0 -4.62808 -21.4306 -3.3779 5 17 -1.13687e-13 -3.29783 -6.50603 15.8234 6.45 -5.68434e-14 1.13687e-13 -2.80184 -0.434967 0.376753 6.45 0 0 53.0753 -44.3914 32.5997 -5.68434e-14 -32.4 -2 -19.1477 -50.6306 -9.21786 -5.68434e-14 -25.65 2 -21.6562 -8.81963 -34.9846 -0.5 -1.5 2.65 15.6996 26.8272 66.3451 0 -3.8 3.7 -0.153918 0.438748 -0.105132 0 -3 2.7 0.00414188 0.416501 -0.00343885 0 -1.9 1.6 -2.14325e-06 8.79866e-06 1.25316e-05 -5.68434e-14 -8.3 1.9 -34.0123 22.9825 7.92187 0 -4.5 1.13687e-13 -1.85798 -0.0224636 -0.0352515 -1.13687e-13 -3.4 1.13687e-13 -0.739673 -0.0203101 -0.0334473 -0.25 -2.2 0.4 -2.14325e-06 8.79866e-06 1.25316e-05 0 -8.3 1 -44.6701 27.3672 13.8073 0 -4.65 -1.13687e-13 -30.6645 -0.031629 -0.133113 0 -3.3 -1.13687e-13 -20.4475 0.0125938 -0.0807078 -0.5 -2.15 -0.8 -2.14325e-06 8.79866e-06 1.25316e-05 -5.68434e-14 -7.75 -0.2 -77.9674 11.8923 17.2172 1.13687e-13 -3.8 1.13687e-13 -30.5246 0.0119184 0.0166636 0 -3.4 0 -21.3299 0.0203529 0.0139925 -0.75 -1.75 -1.85 -2.14325e-06 8.79866e-06 1.25316e-05 0 -7.15 -1 -40.1719 19.0999 9.58345 0 -3 0 -24.3894 0.00445504 0.0136064 0 -2.35 0 -14.4746 0.00125042 0.00913067 -5 17 -1.13687e-13 2.63034 -3.47611 2.81566 -6.45 -1.13687e-13 0 -1.85724 0.592826 -2.48636 -6.45 0 0 -15.6597 -74.7111 12.5934 1.13687e-13 -32.4 -2 -26.9407 -33.1729 -69.7911 0 -25.65 2 -7.30781 -3.08641 -16.7156 0.5 -1.5 2.65 -59.6893 -2.57201 -14.0026 1.13687e-13 -3.8 3.7 0.24412 10.0366 0.0626869 2.27374e-13 -3 2.7 0.0441366 50.2943 0.183325 0 -1.9 1.6 -5.7088e-05 2.65228e-05 -2.38354e-05 5.68434e-14 -8.3 1.9 18.9086 18.9864 -3.47244 0 -4.5 0 1.96364 0.261752 0.429266 2.84217e-14 -3.4 -5.68434e-14 -0.00187596 0.247781 0.434288 0.25 -2.2 0.4 -5.7088e-05 2.65228e-05 -2.38354e-05 5.68434e-14 -8.3 1 21.7062 9.13088 -2.25459 -2.84217e-14 -4.65 5.68434e-14 2.7035 0.12878 -0.344774 -2.84217e-14 -3.3 -2.84217e-14 0.00106175 0.136943 -0.335682 0.5 -2.15 -0.8 -5.7088e-05 2.65228e-05 -2.38354e-05 0 -7.75 -0.2 26.1013 0.107424 -0.946716 0 -3.8 2.84217e-14 0.00820739 5.88006e-05 7.47687e-05 0 -3.4 0 -0.0167834 2.83177e-05 -2.09912e-05 0.75 -1.75 -1.85 -5.7088e-05 2.65228e-05 -2.38354e-05 2.84217e-14 -7.15 -1 30.1032 -6.67999 0.521547 0 -3 2.84217e-14 0.00354384 -0.209561 0.552968 0 -2.35 2.84217e-14 0.00212666 -0.209383 0.579362 8 1.42109e-14 -1.13687e-13 0.660768 -59.7565 -12.2779 5.68434e-14 -45 -1 4.43061 56.3881 -13.0885 0 -41 -2 -17.1123 0.209154 19.6473 -1.13687e-13 -7.5 12.5 4.2453e-06 -2.45384e-06 -9.40556e-06 0 0 4 -0.525251 -10.004 25.7209 -8 0 0 -13.0948 -61.8725 -25.7264 -1.13687e-13 -45 -1 -20.6617 66.1902 40.2919 0 -41 -2 -13.5906 23.2604 19.5627 0 -7.5 12.5 1.24032e-05 -8.6612 -3.72313e-05 0 2.84217e-14 4 7.28391 9.35834 1.02739 
-395.105 77.6116 872.855 -3.18679 1.18736 -175.62 5.68434e-14 8 1.13687e-13 16.2102 17.8267 -15.906 2.84217e-14 8 0 -0.189234 10.121 0.313032 -2.84217e-14 8 0 -0.0882308 5.06495 0.163166 2.84217e-14 8 0 -0.0881361 5.04518 0.153301 0 17 0 -1.79966 -9.17116 -1.22523 -2.84217e-14 10.8 0 -4.69604 -21.4561 -3.45129 5 17 -1.13687e-13 -3.26811 -6.52894 15.9229 6.45 0 0 -2.80179 -0.451675 0.380773 6.45 0 0 52.8854 -44.766 32.2338 5.68434e-14 -32.4 -2 -18.6925 -50.4889 -8.90614 -5.68434e-14 -25.65 2 -21.5597 -9.10867 -35.793 -0.5 -1.5 2.65 15.3432 26.7632 66.1862 0 -3.8 3.7 -0.154101 0.438748 -0.105542 0 -3 2.7 0.0202171 1.00407 -0.00338388 -5.68434e-14 -1.9 1.6 -2.14325e-06 8.79866e-06 1.25316e-05 2.84217e-14 -8.3 1.9 -35.5796 23.6023 8.52306 5.68434e-14 -4.5 -1.13687e-13 -1.64603 -0.00301535 -0.0131753 0 -3.4 -1.13687e-13 -0.534148 -0.00331736 -0.0126391 -0.25 -2.2 0.4 -2.14325e-06 8.79866e-06 1.25316e-05 0 -8.3 1 -47.1351 27.3304 14.6313 0 -4.65 -1.13687e-13 -28.7915 -0.0320155 -0.0950757 -1.13687e-13 -3.3 0 -19.2996 0.00311664 -0.0596261 -0.5 -2.15 -0.8 -2.14325e-06 8.79866e-06 1.25316e-05 0 -7.75 -0.2 -79.8647 10.9043 17.1501 1.13687e-13 -3.8 0 -31.0864 0.0178051 0.0140413 1.13687e-13 -3.4 -1.13687e-13 -21.6675 0.0201202 0.0144146 -0.75 -1.75 -1.85 -2.14325e-06 8.79866e-06 1.25316e-05 0 -7.15 -1 -42.2089 18.9233 10.0701 0 -3 1.13687e-13 -24.8973 0.0154229 0.0222556 0 -2.35 0 -14.8011 0.00758736 0.016026 -5 17 -1.13687e-13 2.45821 -3.48483 2.5701 -6.45 -1.13687e-13 0 -1.81654 0.548761 -2.39544 -6.45 1.13687e-13 1.13687e-13 -14.4824 -74.7549 13.5863 0 -32.4 -2 -26.9082 -33.1228 -69.8338 0 -25.65 2 -7.36489 -3.19241 -16.7729 0.5 -1.5 2.65 -59.6767 -2.75069 -13.8864 1.13687e-13 -3.8 3.7 0.243955 10.1753 0.0627555 0 -3 2.7 0.0444039 50.295 0.182949 2.84217e-14 -1.9 1.6 -5.7088e-05 2.65228e-05 -2.38354e-05 -2.84217e-14 -8.3 1.9 18.6916 18.9784 -3.43139 0 -4.5 0 1.96363 0.262867 0.428765 -2.84217e-14 -3.4 0 -0.00188244 0.248903 0.433821 0.25 -2.2 0.4 -5.7088e-05 2.65228e-05 -2.38354e-05 2.84217e-14 -8.3 1 21.4983 9.1782 -2.2411 0 -4.65 -2.84217e-14 2.70337 0.129725 -0.345514 -8.52651e-14 -3.3 0 0.00106956 0.137896 -0.336362 0.5 -2.15 -0.8 -5.7088e-05 2.65228e-05 -2.38354e-05 0 -7.75 -0.2 25.904 0.13108 -0.941619 0 -3.8 -5.68434e-14 0.0080459 5.88006e-05 7.47687e-05 0 -3.4 2.84217e-14 -0.0171794 2.83177e-05 -2.09912e-05 0.75 -1.75 -1.85 -5.7088e-05 2.65228e-05 -2.38354e-05 0 -7.15 -1 29.903 -6.64415 0.514634 1.13687e-13 -3 8.52651e-14 0.0035498 -0.209867 0.55379 -5.68434e-14 -2.35 2.84217e-14 0.00213289 -0.209687 0.580224 8 1.42109e-14 1.13687e-13 0.700303 -59.7816 -12.2633 0 -45 -1 4.43388 56.3926 -13.0885 -2.84217e-14 -41 -2 -17.1079 0.182736 19.6261 1.13687e-13 -7.5 12.5 4.2453e-06 -2.45384e-06 -9.40556e-06 0 0 4 -0.516068 -9.94863 25.7216 -8 1.42109e-14 1.13687e-13 -13.0757 -61.889 -25.7315 5.68434e-14 -45 -1 -20.6898 66.2055 40.3235 -1.13687e-13 -41 -2 -13.5865 23.2627 19.5477 -1.13687e-13 -7.5 12.5 1.23714e-05 -8.70951 -3.7236e-05 0 2.84217e-14 4 7.28437 9.42934 1.01752 
-395.087 77.6019 872.865 -3.16336 1.17891 -175.621 0 8 0 16.1828 17.8429 -15.9014 -5.68434e-14 8 0 -0.200664 10.1221 0.313647 -2.84217e-14 8 0 -0.0931715 5.06574 0.163453 0 8 1.13687e-13 -0.0943596 5.0455 0.153654 0 17 -1.13687e-13 -1.82588 -9.17747 -1.24567 5.68434e-14 10.8 1.13687e-13 -4.76518 -21.4685 -3.50822 5 17 -1.13687e-13 -3.24001 -6.55882 16.013 6.45 0 0 -2.80175 -0.468402 0.379512 6.45 0 0 52.7272 -44.9167 31.7925 0 -32.4 -2 -18.4807 -50.5271 -8.81601 -5.68434e-14 -25.65 2 -21.139 -9.91686 -36.4263 -0.5 -1.5 2.65 15.3443 26.7498 65.364 0 -3.8 3.7 -0.15427 0.438747 -0.105938 0 -3 2.7 0.0557623 2.02272 -0.00334367 0 -1.9 1.6 -2.14325e-06 8.79866e-06 1.25316e-05 -2.84217e-14 -8.3 1.9 -37.12 24.1658 9.12681 0 -4.5 0 -2.11653 0.0146595 -0.00827235 -5.68434e-14 -3.4 0 -0.957177 0.0125999 -0.00762554 -0.25 -2.2 0.4 -2.14325e-06 8.79866e-06 1.25316e-05 5.68434e-14 -8.3 1 -49.5709 27.2099 15.4305 0 -4.65 -1.13687e-13 -27.0386 -0.0349261 -0.0578697 0 -3.3 0 -18.2123 -0.00792819 -0.0386379 -0.5 -2.15 -0.8 -2.14325e-06 8.79866e-06 1.25316e-05 0 -7.75 -0.2 -81.3874 9.97945 17.0032 0 -3.8 1.13687e-13 -31.6835 0.0264658 0.0128317 0 -3.4 -1.13687e-13 -22.0264 0.0198133 0.0154274 -0.75 -1.75 -1.85 -2.14325e-06 8.79866e-06 1.25316e-05 0 -7.15 -1 -44.3161 18.8065 10.6131 0 -3 0 -25.7171 0.0309553 0.0223149 0 -2.35 0 -15.3317 0.0174287 0.0177946 -5 17 -1.13687e-13 2.31269 -3.5174 2.32179 -6.45 0 -1.13687e-13 -1.77301 0.508149 -2.2976 -6.45 0 0 -13.2888 -74.7596 14.6829 0 -32.4 -2 -26.8991 -33.0964 -69.9466 0 -25.65 2 -7.45792 -3.29353 -16.8212 0.5 -1.5 2.65 -59.6513 -2.93908 -13.7723 -1.13687e-13 -3.8 3.7 0.243786 10.3174 0.0628252 -1.13687e-13 -3 2.7 0.0446719 50.2958 0.182571 5.68434e-14 -1.9 1.6 -5.7088e-05 2.65228e-05 -2.38354e-05 0 -8.3 1.9 18.4161 18.9815 -3.38233 0 -4.5 0 1.96363 0.263982 0.428262 0 -3.4 1.13687e-13 -0.00188888 0.250024 0.433353 0.25 -2.2 0.4 -5.7088e-05 2.65228e-05 -2.38354e-05 -5.68434e-14 -8.3 1 21.236 9.25301 -2.22729 0 -4.65 0 2.70325 0.13067 -0.346252 -2.84217e-14 -3.3 0 0.00107738 0.138849 -0.337039 0.5 -2.15 -0.8 -5.7088e-05 2.65228e-05 -2.38354e-05 -2.84217e-14 -7.75 -0.2 25.6503 0.173686 -0.93799 0 -3.8 -2.84217e-14 0.00788217 5.88006e-05 7.47687e-05 0 -3.4 5.68434e-14 -0.0175767 2.83177e-05 -2.09912e-05 0.75 -1.75 -1.85 -5.7088e-05 2.65228e-05 -2.38354e-05 -2.84217e-14 -7.15 -1 29.6386 -6.58852 0.502968 0 -3 2.84217e-14 0.00355574 -0.21017 0.554611 -5.68434e-14 -2.35 0 0.00213907 -0.209988 0.581079 8 1.42109e-14 -1.13687e-13 0.757569 -59.8065 -12.2324 0 -45 -1 4.43739 56.3956 -13.0889 -8.52651e-14 -41 -2 -17.1033 0.153148 19.5995 0 -7.5 12.5 4.2453e-06 -2.45384e-06 -9.40556e-06 0 3.55271e-15 4 -0.507652 -9.89261 25.7222 -8 1.42109e-14 0 -13.046 -61.9043 -25.7216 0 -45 -1 -20.712 66.2171 40.3479 0 -41 -2 -13.5845 23.2643 19.5378 0 -7.5 12.5 1.23165e-05 -8.79306 -3.72444e-05 0 0 4 7.28558 9.51426 1.00581 
